HIERARCHY
ROOT Hips
{
	OFFSET	0.00	0.00	0.00
	CHANNELS 6 Xposition Yposition Zposition Zrotation Xrotation Yrotation
	JOINT LeftUpLeg
	{
		OFFSET	 0.126116	-0.014019	-0.065224
		CHANNELS 3 Zrotation Xrotation Yrotation
		JOINT LeftLeg
		{
			OFFSET	 0.000000	 0.000000	 0.569914
			CHANNELS 3 Zrotation Xrotation Yrotation
			JOINT LeftFoot
			{
				OFFSET	 0.000000	 0.000000	 0.544423
				CHANNELS 3 Zrotation Xrotation Yrotation
				JOINT LeftToeBase
				{
					OFFSET	 0.000000	 0.000000	 0.207117
					CHANNELS 3 Zrotation Xrotation Yrotation
					End Site
					{
						OFFSET	 0.000000	 0.000000	 0.207117
					}
				}
			}
		}
	}
	JOINT RightUpLeg
	{
		OFFSET	-0.124023	-0.008373	-0.065224
		CHANNELS 3 Zrotation Xrotation Yrotation
		JOINT RightLeg
		{
			OFFSET	 0.000000	 0.000000	 0.570047
			CHANNELS 3 Zrotation Xrotation Yrotation
			JOINT RightFoot
			{
				OFFSET	 0.000000	 0.000000	 0.544354
				CHANNELS 3 Zrotation Xrotation Yrotation
				JOINT RightToeBase
				{
					OFFSET	 0.000000	 0.000000	 0.207540
					CHANNELS 3 Zrotation Xrotation Yrotation
					End Site
					{
						OFFSET	 0.000000	 0.000000	 0.207540
					}
				}
			}
		}
	}
	JOINT Spine
	{
		OFFSET	 0.000184	-0.007763	 0.117403
		CHANNELS 3 Zrotation Xrotation Yrotation
		JOINT Spine1
		{
			OFFSET	 0.000000	 0.000000	 0.137269
			CHANNELS 3 Zrotation Xrotation Yrotation
			JOINT Spine2
			{
				OFFSET	 0.000000	 0.000000	 0.156879
				CHANNELS 3 Zrotation Xrotation Yrotation
				JOINT LeftShoulder
				{
					OFFSET	 0.080501	-0.002496	 0.160144
					CHANNELS 3 Zrotation Xrotation Yrotation
					JOINT LeftArm
					{
						OFFSET	 0.000000	 0.000000	 0.164363
						CHANNELS 3 Zrotation Xrotation Yrotation
						JOINT LeftForeArm
						{
							OFFSET	 0.000000	 0.000000	 0.364576
							CHANNELS 3 Zrotation Xrotation Yrotation
							JOINT LeftHand
							{
								OFFSET	 0.000000	 0.000000	 0.360812
								CHANNELS 3 Zrotation Xrotation Yrotation
								JOINT LeftHandIndex1
								{
									OFFSET	 0.000000	 0.000000	 0.086006
									CHANNELS 3 Zrotation Xrotation Yrotation
									JOINT LeftHandIndex2
									{
										OFFSET	 0.000000	 0.000000	 0.047236
										CHANNELS 3 Zrotation Xrotation Yrotation
										JOINT LeftHandIndex3
										{
											OFFSET	-0.004284	-0.000551	 0.038166
											CHANNELS 3 Zrotation Xrotation Yrotation
											End Site
											{
												OFFSET	-0.004284	-0.000551	 0.038166
											}
										}
									}
								}
							}
						}
					}
				}
				JOINT Neck
				{
					OFFSET	 0.000000	 0.000000	 0.176489
					CHANNELS 3 Zrotation Xrotation Yrotation
					JOINT Head
					{
						OFFSET	 0.000000	-0.001747	 0.077940
						CHANNELS 3 Zrotation Xrotation Yrotation
						End Site
						{
							OFFSET	 0.000000	-0.001747	 0.077940
						}
					}
				}
				JOINT RightShoulder
				{
					OFFSET	-0.080363	 0.000306	 0.159706
					CHANNELS 3 Zrotation Xrotation Yrotation
					JOINT RightArm
					{
						OFFSET	 0.000000	 0.000000	 0.164196
						CHANNELS 3 Zrotation Xrotation Yrotation
						JOINT RightForeArm
						{
							OFFSET	 0.000000	 0.000000	 0.365611
							CHANNELS 3 Zrotation Xrotation Yrotation
							JOINT RightHand
							{
								OFFSET	 0.000000	 0.000000	 0.360648
								CHANNELS 3 Zrotation Xrotation Yrotation
								JOINT RightHandIndex1
								{
									OFFSET	 0.000000	 0.000000	 0.069977
									CHANNELS 3 Zrotation Xrotation Yrotation
									JOINT RightHandIndex2
									{
										OFFSET	 0.000000	 0.000000	 0.052305
										CHANNELS 3 Zrotation Xrotation Yrotation
										JOINT RightHandIndex3
										{
											OFFSET	 0.009002	-0.000782	 0.042196
											CHANNELS 3 Zrotation Xrotation Yrotation
											End Site
											{
												OFFSET	 0.009002	-0.000782	 0.042196
											}
										}
									}
								}
							}
						}
					}
				}
			}
		}
	}
}
MOTION
Frames:    6
Frame Time: 0.03333334
-0.435321	-7.356547	 1.237329	-6.461686	 17.220500	 3.758207	 3.467822	-34.901730	 175.297400	-1.153157	-43.134850	-0.247620	-0.686690	 80.759500	 0.563362	-2.351293	 34.302390	-0.132210	-0.727049	-36.130650	-179.541300	-3.033687	-43.218300	-0.984045	-1.598417	 80.930590	 0.459048	 2.406769	 19.726130	-0.178529	 7.319000	 14.831480	 0.107431	 10.533270	 1.406921	-1.922293	 12.008590	-3.790438	 1.193152	-125.767900	 89.282080	-141.795600	 54.313030	 65.703960	-61.278790	-12.334790	-0.554395	-24.613900	-1.799413	-2.189420	-5.375322	-5.716633	-12.316910	-1.444853	-5.213516	-0.193813	 3.566525	-1.378229	 35.397820	-2.634230	 0.816755	 0.171336	-3.823863	 3.018909	-6.849143	 1.701034	 93.696950	 85.938900	 172.003600	-61.911040	 74.432850	 71.654180	-0.429805	-14.147040	 34.551720	-24.090260	-3.189094	 9.581589	-9.998863	-10.187780	-38.984460	 5.070815	-0.697434	-9.399699	-2.350882	 35.473990	 5.254307
-0.433884	-7.374694	 1.238231	-6.277956	 18.040960	 3.796211	 3.598830	-34.961000	 175.567000	-1.936226	-43.177960	-0.713960	-0.967547	 81.622390	 0.280969	-2.352286	 34.169070	-0.129053	-0.771431	-35.745420	-179.405000	-2.647542	-42.599420	-0.753917	-1.566921	 82.335380	 0.767049	 2.405730	 20.746070	-0.158253	 9.842400	 14.472440	-0.027549	 10.052860	 1.109552	-2.008093	 11.326530	-4.185084	 1.163763	-124.115200	 89.245670	-143.410200	 59.605710	 67.211160	-63.106150	-11.063730	-0.791250	-22.715880	-1.098357	-2.233682	-5.371727	-5.262662	-11.819560	-0.430825	-5.213516	-0.193813	 3.566525	-1.378229	 35.397820	-2.634230	 0.741252	-0.106413	-3.639037	 2.774650	-7.464885	 1.804814	 93.672180	 85.986530	 172.126000	-55.704390	 77.453840	 63.049740	-1.900946	-12.342750	 27.214550	-26.361490	-3.191481	 9.572700	-9.386021	-8.958941	-38.428700	 5.070815	-0.697434	-9.399699	-2.350882	 35.473990	 5.254307
-0.432993	-7.391541	 1.238409	-6.547531	 18.665410	 3.880343	 3.544123	-34.958950	 175.633300	-2.091416	-43.621950	-0.871898	-1.079379	 82.345470	 0.203831	-2.342066	 35.477140	-0.160400	-0.735378	-35.275530	-179.511200	-2.297922	-42.247440	-0.498324	-1.447879	 83.201930	 0.986803	 2.404774	 21.458110	-0.144006	 12.580050	 14.157740	-0.037327	 9.637837	 0.730976	-1.925381	 10.597150	-4.682139	 1.134106	-118.990200	 89.108470	-148.427400	 63.812270	 68.381340	-64.470760	-9.781303	-1.028000	-21.230130	-0.271503	-2.269769	-5.365343	-4.355206	-10.946490	 1.651507	-5.213516	-0.193813	 3.566525	-1.378229	 35.397820	-2.634230	 0.781977	-0.480723	-3.397364	 2.490743	-8.095045	 1.702552	 93.767040	 86.143600	 172.171200	-43.777850	 79.833390	 48.510150	-2.642749	-11.271120	 23.159480	-28.319200	-3.214467	 9.527394	-8.892326	-7.859137	-38.042420	 5.070815	-0.697434	-9.399699	-2.350882	 35.473990	 5.254307
-0.432053	-7.404915	 1.239766	-7.016233	 19.184970	 3.951836	 3.572798	-34.800420	 175.726500	-2.314501	-43.652070	-1.015773	-1.172450	 82.499150	 0.135615	-2.333049	 36.532240	-0.186285	-0.777393	-35.336220	-179.519000	-2.463724	-42.136910	-0.635271	-1.562483	 83.366700	 0.959080	 2.404599	 21.575920	-0.141649	 15.009010	 13.915750	-0.118038	 9.151007	 0.559117	-1.662760	 9.916002	-4.965528	 1.085219	-111.656800	 88.835680	-155.765100	 66.147930	 69.392720	-64.923710	-9.456584	-1.082139	-20.278350	 0.026595	-2.293704	-5.361959	-3.974761	-10.626870	 2.543670	-5.213516	-0.193813	 3.566525	-1.378229	 35.397820	-2.634230	 0.897520	-0.598652	-3.074523	 2.328985	-8.589540	 1.910765	 94.234040	 86.474190	 171.779600	-32.723240	 80.718930	 35.561310	-2.697790	-10.581970	 21.382390	-29.009850	-3.229031	 9.496481	-8.714469	-7.570564	-37.823680	 5.070815	-0.697434	-9.399699	-2.350882	 35.473990	 5.254307
-0.431652	-7.415580	 1.242043	-7.459933	 19.637960	 3.892787	 3.574152	-34.724040	 175.776600	-2.628726	-43.421260	-1.223176	-1.267001	 82.265340	 0.004109	-2.326014	 37.302440	-0.205537	-0.857926	-35.360550	-179.316000	-2.736437	-42.031040	-0.868368	-1.752022	 83.401300	 0.889776	 2.404514	 21.633340	-0.140488	 17.087340	 13.732000	-0.031437	 8.553335	 0.509884	-1.431219	 9.205745	-5.093330	 1.017349	-108.081300	 88.633990	-159.387800	 67.331610	 69.918900	-65.338000	-8.740347	-1.295950	-19.618130	 0.894410	-2.315543	-5.353200	-3.856005	-10.946380	 2.824942	-5.213516	-0.193813	 3.566525	-1.378229	 35.397820	-2.634230	 0.974521	-0.788066	-2.718182	 2.226004	-8.652048	 2.137227	 94.757370	 86.732770	 171.241700	-26.062860	 80.794490	 27.652030	-2.979675	-10.421750	 20.861300	-29.466500	-3.234759	 9.480664	-8.634031	-7.654380	-37.572530	 5.070815	-0.697434	-9.399699	-2.350882	 35.473990	 5.254307
-0.432323	-7.425044	 1.243900	-7.723985	 19.898020	 3.866844	 3.569151	-34.343500	 175.803100	-2.689156	-43.135910	-1.261244	-1.315009	 82.200840	-0.006218	-2.320913	 37.833530	-0.219014	-0.766861	-35.215550	-179.235400	-2.959262	-41.690860	-0.970424	-1.826001	 83.440580	 0.848811	 2.404775	 21.456630	-0.144034	 18.939980	 13.451390	 0.102398	 7.842378	 0.446652	-1.315306	 8.377054	-5.214000	 0.934193	-106.911300	 88.572890	-160.651900	 67.479030	 70.054380	-65.343670	-8.479033	-1.376256	-19.507870	 1.274241	-2.321656	-5.349335	-4.144212	-11.086590	 2.149306	-5.213516	-0.193813	 3.566525	-1.378229	 35.397820	-2.634230	 1.047940	-0.786535	-2.537475	 2.089740	-8.772255	 2.234195	 94.905320	 86.824730	 171.131400	-22.687870	 80.584300	 23.461690	-3.033746	-10.426430	 20.999260	-29.465140	-3.235095	 9.480973	-8.558489	-7.761729	-37.317150	 5.070815	-0.697434	-9.399699	-2.350882	 35.473990	 5.254307
